<svg width="46" height="54" viewBox="0 0 46 54" fill="none" xmlns="http://www.w3.org/2000/svg">
<path d="M24.1375 0.045C26.9758 0 29.7925 0.0225 32.6092 0C32.7825 3.4425 33.9742 6.9525 36.4008 9.3825C38.8275 11.88 42.2508 13.0275 45.5875 13.41V22.4775C42.4675 22.365 39.3258 21.69 36.4875 20.295C35.2525 19.71 34.1042 18.9675 32.9775 18.2025C32.9558 24.7725 32.9992 31.3425 32.9342 37.89C32.7608 41.04 31.7642 44.1675 30.0092 46.755C27.1708 51.075 22.2525 53.8875 17.2042 53.9775C14.1058 54.1575 11.0075 53.28 8.36417 51.66C3.98751 48.9825 0.91084 44.0775 0.45584 38.8125C0.412507 37.6875 0.39084 36.5625 0.434173 35.46C0.824173 31.185 2.86084 27.09 6.02417 24.3C9.62084 21.06 14.6475 19.5075 19.3492 20.43C19.3925 23.76 19.2625 27.09 19.2625 30.42C17.1175 29.7 14.6042 29.9025 12.7192 31.2525C11.3542 32.175 10.3142 33.5925 9.77251 35.19C9.31751 36.3375 9.44751 37.5975 9.46917 38.8125C9.98917 42.5025 13.4125 45.6075 17.0525 45.27C19.4792 45.2475 21.7975 43.785 23.0542 41.6475C23.4658 40.905 23.9208 40.14 23.9425 39.2625C24.1592 35.235 24.0725 31.23 24.0942 27.2025C24.1158 18.135 24.0725 9.09 24.1375 0.045Z" fill="white"/>
</svg>
