<svg width="671" height="518" viewBox="0 0 671 518" fill="none" xmlns="http://www.w3.org/2000/svg">
<g clip-path="url(#clip0_41_1063)">
<path d="M31.179 493.6C40.4865 509.562 60.2402 516.414 60.2402 516.414C60.2402 516.414 64.9036 497.386 55.5962 481.424C46.2887 465.462 26.535 458.609 26.535 458.609C26.535 458.609 21.8716 477.637 31.179 493.6Z" fill="#2F2E41"/>
<path d="M37.5764 488.348C54.3802 497.697 60.8518 516.267 60.8518 516.267C60.8518 516.267 40.0792 519.679 23.2754 510.33C6.47166 500.981 0 482.411 0 482.411C0 482.411 20.7726 478.999 37.5764 488.348Z" fill="#6A1B1A"/>
<path d="M414.319 24.8672H309.475V26.2523H414.319V24.8672Z" fill="#F2F2F2"/>
<path d="M385.861 25.9062H384.364V38.7182H385.861V25.9062Z" fill="#F2F2F2"/>
<path d="M340.179 25.9062H338.682V38.7182H340.179V25.9062Z" fill="#F2F2F2"/>
<path d="M467.49 91.3516H362.646V92.7366H467.49V91.3516Z" fill="#F2F2F2"/>
<path d="M392.601 78.8857H391.104V91.6977H392.601V78.8857Z" fill="#F2F2F2"/>
<path d="M438.283 78.8857H436.785V91.6977H438.283V78.8857Z" fill="#F2F2F2"/>
<path d="M606.782 122.516H501.938V123.901H606.782V122.516Z" fill="#F2F2F2"/>
<path d="M531.894 110.05H530.396V122.862H531.894V110.05Z" fill="#F2F2F2"/>
<path d="M577.576 110.05H576.078V122.862H577.576V110.05Z" fill="#F2F2F2"/>
<path d="M596.298 443.854H491.454V445.24H596.298V443.854Z" fill="#F2F2F2"/>
<path d="M521.409 431.389H519.912V444.201H521.409V431.389Z" fill="#F2F2F2"/>
<path d="M567.091 431.389H565.593V444.201H567.091V431.389Z" fill="#F2F2F2"/>
<path d="M417.314 221.549H312.471V222.934H417.314V221.549Z" fill="#F2F2F2"/>
<path d="M342.426 209.083H340.928V221.895H342.426V209.083Z" fill="#F2F2F2"/>
<path d="M388.108 209.083H386.61V221.895H388.108V209.083Z" fill="#F2F2F2"/>
<path d="M450.265 388.451H345.422V389.836H450.265V388.451Z" fill="#F2F2F2"/>
<path d="M375.377 375.985H373.879V388.797H375.377V375.985Z" fill="#F2F2F2"/>
<path d="M421.059 375.985H419.561V388.797H421.059V375.985Z" fill="#F2F2F2"/>
<path d="M618.015 337.896H513.172V339.281H618.015V337.896Z" fill="#F2F2F2"/>
<path d="M543.127 325.43H541.629V338.242H543.127V325.43Z" fill="#F2F2F2"/>
<path d="M588.809 325.43H587.311V338.242H588.809V325.43Z" fill="#F2F2F2"/>
<path d="M271.141 486.291H93.8157V485.111H269.865V427.894H108.723L100.895 412.812L102.045 412.302L109.526 426.714H271.141V486.291Z" fill="#2F2E41"/>
<path d="M117.416 515.194C124.814 515.194 130.811 509.648 130.811 502.807C130.811 495.966 124.814 490.42 117.416 490.42C110.018 490.42 104.021 495.966 104.021 502.807C104.021 509.648 110.018 515.194 117.416 515.194Z" fill="#3F3D56"/>
<path d="M249.454 515.194C256.852 515.194 262.849 509.648 262.849 502.807C262.849 495.966 256.852 490.42 249.454 490.42C242.056 490.42 236.059 495.966 236.059 502.807C236.059 509.648 242.056 515.194 249.454 515.194Z" fill="#3F3D56"/>
<path d="M405.092 247.393C409.671 247.393 413.384 243.96 413.384 239.725C413.384 235.49 409.671 232.057 405.092 232.057C400.512 232.057 396.799 235.49 396.799 239.725C396.799 243.96 400.512 247.393 405.092 247.393Z" fill="#3F3D56"/>
<path d="M290.107 408.428H90.7922L47.6653 278.066H334.521L334.26 278.833L290.107 408.428ZM91.7359 407.248H289.171L332.782 279.246H49.3895L91.7359 407.248Z" fill="#2F2E41"/>
<path d="M274.548 401.644H99.4832L61.6032 286.029H313.558L313.329 286.71L274.548 401.644Z" fill="#F2F2F2"/>
<path d="M338.095 266.42L336.861 266.118L345.28 236.775H394.248V237.955H346.261L338.095 266.42Z" fill="#2F2E41"/>
<path d="M320.186 317.588H61.602V318.768H320.186V317.588Z" fill="#2F2E41"/>
<path d="M305.378 361.052H75.981V362.231H305.378V361.052Z" fill="#2F2E41"/>
<path d="M191.727 278.656H190.451V407.838H191.727V278.656Z" fill="#2F2E41"/>
<path d="M248.844 278.62L239.686 407.798L240.959 407.875L250.117 278.697L248.844 278.62Z" fill="#2F2E41"/>
<path d="M133.362 278.618L132.088 278.694L141.193 407.876L142.466 407.799L133.362 278.618Z" fill="#2F2E41"/>
<path d="M671 515.942H0V517.327H671V515.942Z" fill="#2F2E41"/>
<path d="M445.894 42.852C445.894 42.852 456.841 71.666 450.104 76.099C443.367 80.5319 472.841 116.734 472.841 116.734L508.21 107.868L488.841 77.5766C488.841 77.5766 486.315 47.2849 486.315 42.852C486.315 38.4191 445.894 42.852 445.894 42.852Z" fill="#A0616A"/>
<path opacity="0.1" d="M445.894 42.852C445.894 42.852 456.841 71.666 450.104 76.099C443.367 80.5319 472.841 116.734 472.841 116.734L508.21 107.868L488.841 77.5766C488.841 77.5766 486.315 47.2849 486.315 42.852C486.315 38.4191 445.894 42.852 445.894 42.852Z" fill="black"/>
<path d="M427.518 248.243C427.518 248.243 424.322 285.184 427.518 304.394C430.714 323.603 435.507 376.798 435.507 376.798C435.507 376.798 435.507 477.278 453.084 478.755C470.66 480.233 483.443 481.711 485.041 475.8C486.639 469.89 477.052 466.934 481.845 463.979C486.639 461.024 488.237 450.68 481.845 438.859C475.454 427.038 481.845 307.349 481.845 307.349L512.205 382.709C512.205 382.709 515.4 444.77 518.596 453.635C521.792 462.501 515.4 478.755 526.585 480.233C537.77 481.711 550.553 472.845 556.945 469.889C563.336 466.934 547.358 466.934 550.553 465.457C553.749 463.979 563.336 459.546 560.14 458.068C556.945 456.591 553.749 385.664 553.749 385.664C553.749 385.664 544.961 234.206 533.776 228.295C522.591 222.385 515.4 232.565 515.4 232.565L427.518 248.243Z" fill="#2F2E41"/>
<path d="M456.28 472.845V484.666C456.28 484.666 441.899 516.799 456.28 516.799C470.66 516.799 481.845 520.129 481.845 515.696V475.8L456.28 472.845Z" fill="#2F2E41"/>
<path d="M550.553 472.824V484.645C550.553 484.645 564.934 516.779 550.553 516.779C536.173 516.779 524.988 520.109 524.988 515.676V475.779L550.553 472.824Z" fill="#2F2E41"/>
<path d="M468.264 64.2771C484.148 64.2771 497.025 52.369 497.025 37.6796C497.025 22.9902 484.148 11.082 468.264 11.082C452.379 11.082 439.502 22.9902 439.502 37.6796C439.502 52.369 452.379 64.2771 468.264 64.2771Z" fill="#A0616A"/>
<path d="M459.475 87.1807C459.475 87.1807 467.465 109.345 480.247 104.912L493.03 100.479L515.4 242.333C515.4 242.333 497.824 265.975 472.258 251.199C446.692 236.422 459.475 87.1807 459.475 87.1807Z" fill="#6A1B1A"/>
<path d="M481.845 82.7475L489.036 68.71C489.036 68.71 531.379 87.1805 537.77 93.091C544.162 99.0016 544.162 107.867 544.162 107.867L532.977 144.808C532.977 144.808 536.173 226.079 536.173 229.034C536.173 231.989 547.358 248.243 539.368 242.333C531.379 236.422 529.781 230.512 523.39 239.378C516.998 248.243 502.618 258.587 502.618 258.587L481.845 82.7475Z" fill="#3F3D56"/>
<path d="M537.77 189.138L532.977 230.512C532.977 230.512 504.215 254.154 510.607 255.632C516.998 257.109 520.194 251.199 520.194 251.199C520.194 251.199 531.379 261.542 537.77 255.632C544.162 249.721 560.14 193.571 560.14 193.571L537.77 189.138Z" fill="#A0616A"/>
<path d="M468.876 0.0899409C462.5 -0.120847 455.677 -0.225117 450.301 2.95235C447.827 4.54699 445.658 6.51094 443.881 8.76382C438.645 14.8848 434.121 22.5864 436.066 30.1809L438.325 29.3662C438.325 31.3934 437.838 33.3952 436.898 35.2269C437.216 34.3715 438.282 35.7542 437.997 36.6195L435.508 44.1686C439.599 42.7819 444.687 45.5896 445.31 49.5771C445.594 40.8087 446.578 30.7541 454.269 25.6199C458.148 23.0307 463.057 22.2403 467.78 21.5384C472.138 20.8909 476.706 20.2734 480.879 21.5999C485.053 22.9265 488.607 26.8736 487.66 30.8598C489.585 30.2468 491.737 31.487 492.688 33.1511C493.639 34.8153 493.689 36.7783 493.718 38.6603C495.769 40.001 498.103 37.3388 498.939 35.1484C500.902 30.0067 502.646 24.5336 501.589 19.1694C500.532 13.8053 495.805 8.67902 489.909 8.66082C490.624 7.93389 491.006 6.97803 490.974 5.99542L486.114 5.6157C487.348 5.45415 488.482 4.90096 489.323 4.05087C487.372 6.03634 472.031 0.194244 468.876 0.0899409Z" fill="#2F2E41"/>
<path d="M467.465 78.3152C467.465 78.3152 454.457 66.5276 449.776 67.2496C445.095 67.9717 438.703 78.3152 438.703 78.3152C438.703 78.3152 400.354 90.1363 401.952 101.957C403.55 113.779 421.127 171.407 421.127 171.407C421.127 171.407 435.507 240.856 422.724 248.244C409.942 255.632 483.443 274.841 485.041 265.976C486.639 257.11 489.835 168.451 485.041 155.153C480.247 141.854 467.465 78.3152 467.465 78.3152Z" fill="#3F3D56"/>
<path d="M523.39 101.957H543.147C543.147 101.957 556.945 158.107 558.543 164.018C560.14 169.929 563.336 198.004 561.738 198.004C560.14 198.004 528.183 192.093 528.183 196.526L523.39 101.957Z" fill="#3F3D56"/>
<path d="M522.721 241.004H447.084C439.703 209.604 439.086 179.266 447.084 150.281H522.721C510.515 178.745 509.752 208.875 522.721 241.004Z" fill="#F2F2F2"/>
<path d="M416.333 202.436L438.703 211.302C438.703 211.302 481.845 217.213 481.845 200.959C481.845 184.705 438.703 193.571 438.703 193.571L424.321 189.318L416.333 202.436Z" fill="#A0616A"/>
<path d="M421.127 93.0918L401.952 97.5247L387.572 175.84C387.572 175.84 382.778 196.527 390.767 198.004C398.757 199.482 421.127 211.303 421.127 211.303C421.127 211.303 424.322 189.138 430.714 189.138L414.735 177.317L424.322 125.6L421.127 93.0918Z" fill="#3F3D56"/>
<path d="M149.963 244.402H45.1191V245.787H149.963V244.402Z" fill="#F2F2F2"/>
<path d="M75.0745 231.937H73.5767V244.749H75.0745V231.937Z" fill="#F2F2F2"/>
<path d="M120.756 231.937H119.259V244.749H120.756V231.937Z" fill="#F2F2F2"/>
<path d="M186.658 39.4111H81.8145V40.7962H186.658V39.4111Z" fill="#F2F2F2"/>
<path d="M158.201 40.4502H156.703V53.2622H158.201V40.4502Z" fill="#F2F2F2"/>
<path d="M112.519 40.4502H111.021V53.2622H112.519V40.4502Z" fill="#F2F2F2"/>
<path d="M292.251 175.841H187.407V177.226H292.251V175.841Z" fill="#F2F2F2"/>
<path d="M263.793 176.88H262.295V189.692H263.793V176.88Z" fill="#F2F2F2"/>
<path d="M218.111 176.88H216.614V189.692H218.111V176.88Z" fill="#F2F2F2"/>
<path d="M114.016 175.148H9.17273V176.534H114.016V175.148Z" fill="#F2F2F2"/>
<path d="M85.5589 176.188H84.0611V188.999H85.5589V176.188Z" fill="#F2F2F2"/>
<path d="M39.8769 176.188H38.3792V188.999H39.8769V176.188Z" fill="#F2F2F2"/>
<path d="M239.829 105.895H134.985V107.28H239.829V105.895Z" fill="#F2F2F2"/>
<path d="M164.941 93.4287H163.443V106.241H164.941V93.4287Z" fill="#F2F2F2"/>
<path d="M210.622 93.4287H209.125V106.241H210.622V93.4287Z" fill="#F2F2F2"/>
</g>
<defs>
<clipPath id="clip0_41_1063">
<rect width="671" height="518" fill="white"/>
</clipPath>
</defs>
</svg>
