<svg width="1440" height="1024" viewBox="0 0 1440 1024" fill="none" xmlns="http://www.w3.org/2000/svg">
<path opacity="0.863462" d="M1084.34 34.6096C1047.84 42.7526 991.793 50.552 952.089 71.0848C912.385 91.6176 889.022 124.882 904.816 142.379C920.609 159.876 975.556 161.606 1022.49 157.031C1069.42 152.456 1108.33 141.577 1138.58 144.328C1168.82 147.079 1190.39 163.459 1196.76 183.158C1203.12 202.856 1194.26 225.872 1189.44 253.198C1184.61 280.523 1183.8 312.157 1215.5 332.367C1247.2 352.577 1311.39 361.364 1354.95 355.812C1398.51 350.26 1421.44 330.371 1436.51 316.514C1451.59 302.658 1458.81 294.834 1461.81 244.399C1464.81 193.963 1463.58 100.917 1454.35 48.3558C1445.12 -4.2059 1427.87 -16.2819 1376.61 -16.0117C1325.35 -15.7415 1240.08 -3.12439 1188.95 7.42781C1137.83 17.98 1120.85 26.4666 1084.34 34.6096Z" fill="url(#paint0_linear_41_281)"/>
<path opacity="0.925" d="M1132.84 -20.8808C1095.15 -15.5692 1038.75 -12.6357 994.102 6.10901C949.456 24.8538 916.565 59.4078 926.304 80.4537C936.042 101.5 988.407 109.037 1035.02 108.753C1081.64 108.469 1122.51 100.364 1150.77 106.511C1179.03 112.658 1194.69 133.054 1194.65 155.581C1194.62 178.107 1178.91 202.763 1165.72 232.616C1152.53 262.47 1141.87 297.518 1166.07 323.203C1190.27 348.887 1249.34 365.206 1293.01 363.493C1336.69 361.78 1364.98 342.035 1383.83 328.188C1402.67 314.34 1412.07 306.39 1430.72 250.684C1449.37 194.979 1477.27 91.5212 1484.81 32.2043C1492.34 -27.1125 1479.51 -42.2864 1430.07 -47.2258C1380.63 -52.1652 1294.58 -46.8688 1242.06 -40.3754C1189.54 -33.8821 1170.54 -26.1924 1132.84 -20.8808Z" fill="url(#paint1_linear_41_281)"/>
<path opacity="0.925" d="M208.056 826.455C259.792 821.449 295.082 788.575 305.191 756.836C315.299 725.097 300.227 694.501 287.55 662.861C274.874 631.221 264.6 598.552 244.167 580.84C223.733 563.128 193.147 560.382 182.085 545.246C171.022 530.11 179.491 502.595 165.862 482.897C152.232 463.198 116.508 451.328 78.7272 436.361C40.9465 421.394 1.12738 403.338 -143.764 393.48C-288.655 383.621 -538.567 381.965 -697.148 400.208C-855.729 418.452 -922.962 456.593 -889.915 497.824C-856.869 539.055 -723.567 583.363 -576.483 628.297C-429.399 673.23 -268.611 718.764 -178.229 748.076C-87.8463 777.388 -67.8915 790.472 -46.5994 794.045C-25.3074 797.617 -2.68121 791.676 42.7274 800.138C88.136 808.599 156.32 831.462 208.056 826.455Z" fill="url(#paint2_linear_41_281)"/>
<path opacity="0.925" d="M189.27 793.615C241.006 788.608 276.295 755.734 286.404 723.995C296.513 692.256 281.44 661.66 268.764 630.02C256.088 598.38 245.814 565.711 225.38 547.999C204.947 530.288 174.361 527.541 163.298 512.405C152.235 497.269 160.705 469.755 147.075 450.056C133.446 430.358 97.7216 418.487 59.9409 403.52C22.1602 388.554 -17.659 370.498 -162.55 360.639C-307.441 350.78 -557.353 349.125 -715.934 367.368C-874.515 385.611 -941.748 423.753 -908.702 464.984C-875.655 506.215 -742.353 550.523 -595.269 595.456C-448.185 640.389 -287.397 685.923 -197.015 715.235C-106.633 744.547 -86.6779 757.632 -65.3858 761.204C-44.0938 764.776 -21.4676 758.836 23.941 767.297C69.3497 775.759 137.534 798.621 189.27 793.615Z" fill="url(#paint3_linear_41_281)"/>
<path opacity="0.925" d="M1565.89 697.259C1528.89 698.944 1454.9 702.314 1396.7 715.61C1338.5 728.906 1296.1 752.125 1250.65 774.917C1205.2 797.708 1156.71 820.061 1138.64 838.409C1120.56 856.758 1132.9 871.094 1113.92 884.092C1094.94 897.09 1044.65 908.74 1019.52 925.334C994.393 941.928 994.447 963.459 990.506 987.561C986.564 1011.66 978.627 1038.33 1042.32 1104.5C1106.02 1170.67 1241.33 1276.33 1359.18 1332.72C1477.02 1389.11 1577.4 1396.22 1627.5 1359.59C1677.59 1322.96 1677.41 1242.61 1670.65 1156.15C1663.89 1069.68 1650.56 977.135 1649.22 923.061C1647.89 868.988 1658.56 853.396 1652.72 842.499C1646.88 831.601 1624.53 825.4 1613.47 801.694C1602.42 777.988 1602.65 736.781 1602.77 716.178C1602.89 695.575 1602.89 695.575 1565.89 697.259Z" fill="url(#paint4_linear_41_281)"/>
<path opacity="0.925" d="M1631.98 697.666C1594.98 699.351 1520.99 702.72 1462.79 716.017C1404.58 729.313 1362.19 752.532 1316.74 775.323C1271.28 798.115 1222.8 820.468 1204.72 838.816C1186.65 857.164 1198.99 871.501 1180.01 884.499C1161.03 897.497 1110.74 909.147 1085.61 925.741C1060.48 942.335 1060.53 963.865 1056.59 987.968C1052.65 1012.07 1044.71 1038.73 1108.41 1104.91C1172.11 1171.08 1307.42 1276.74 1425.26 1333.13C1543.11 1389.51 1643.48 1396.62 1693.58 1360C1743.68 1323.37 1743.5 1243.02 1736.74 1156.55C1729.98 1070.09 1716.65 977.542 1715.31 923.468C1713.98 869.394 1724.65 853.803 1718.81 842.905C1712.97 832.008 1690.62 825.806 1679.56 802.1C1668.51 778.394 1668.74 737.187 1668.86 716.584C1668.98 695.981 1668.98 695.981 1631.98 697.666Z" fill="url(#paint5_linear_41_281)"/>
<defs>
<linearGradient id="paint0_linear_41_281" x1="899.832" y1="170.715" x2="1463.27" y2="170.715" gradientUnits="userSpaceOnUse">
<stop stop-color="#BF3E36" stop-opacity="0.645477"/>
<stop offset="0.396092" stop-color="#A63E36"/>
<stop offset="0.751332" stop-color="#A63E36"/>
<stop offset="1" stop-color="#A63E36"/>
</linearGradient>
<linearGradient id="paint1_linear_41_281" x1="911.098" y1="119.163" x2="1430.7" y2="259.293" gradientUnits="userSpaceOnUse">
<stop offset="0.154529" stop-color="#82403F"/>
<stop offset="0.60746" stop-color="#732A29"/>
<stop offset="0.78508" stop-color="#6A1B1A"/>
<stop offset="0.896981" stop-color="#6A1B1A"/>
<stop offset="1" stop-color="#6A1B1A"/>
</linearGradient>
<linearGradient id="paint2_linear_41_281" x1="-1223.57" y1="535.871" x2="-150.885" y2="615.477" gradientUnits="userSpaceOnUse">
<stop stop-color="#A63936"/>
<stop offset="0.0776897" stop-color="#A63436"/>
<stop offset="0.21492" stop-color="#A63236" stop-opacity="0.867971"/>
<stop offset="0.313953" stop-color="#A63E36" stop-opacity="0.806846"/>
<stop offset="1" stop-color="#A63E36"/>
</linearGradient>
<linearGradient id="paint3_linear_41_281" x1="-1242.35" y1="503.03" x2="-169.672" y2="582.636" gradientUnits="userSpaceOnUse">
<stop stop-color="#6A1B1A"/>
<stop offset="0.146961" stop-color="#6A1B1A"/>
<stop offset="0.230906" stop-color="#6A1B1A"/>
<stop offset="0.322834" stop-color="#732A29"/>
<stop offset="1" stop-color="#6A1B1A"/>
</linearGradient>
<linearGradient id="paint4_linear_41_281" x1="1874.88" y1="1478.41" x2="1696.82" y2="898.152" gradientUnits="userSpaceOnUse">
<stop stop-color="#A63936"/>
<stop offset="0.0776897" stop-color="#A63436"/>
<stop offset="0.21492" stop-color="#A63236" stop-opacity="0.867971"/>
<stop offset="0.313953" stop-color="#A63E36" stop-opacity="0.806846"/>
<stop offset="1" stop-color="#A63E36"/>
</linearGradient>
<linearGradient id="paint5_linear_41_281" x1="1940.97" y1="1478.82" x2="1762.91" y2="898.559" gradientUnits="userSpaceOnUse">
<stop stop-color="#6A1B1A"/>
<stop offset="0.146961" stop-color="#6A1B1A"/>
<stop offset="0.230906" stop-color="#6A1B1A"/>
<stop offset="0.322834" stop-color="#732A29"/>
<stop offset="1" stop-color="#6A1B1A"/>
</linearGradient>
</defs>
</svg>
