<svg width="390" height="844" viewBox="0 0 390 844" fill="none" xmlns="http://www.w3.org/2000/svg">
<path opacity="0.863462" d="M293.677 28.5259C283.789 35.2376 268.611 41.666 257.858 58.5895C247.104 75.513 240.777 102.93 245.054 117.352C249.332 131.773 264.213 133.199 276.923 129.428C289.634 125.657 300.173 116.69 308.364 118.958C316.556 121.225 322.399 134.726 324.121 150.962C325.844 167.198 323.447 186.168 322.139 208.69C320.831 231.213 320.614 257.286 329.198 273.943C337.782 290.601 355.168 297.843 366.965 293.267C378.763 288.691 384.973 272.298 389.056 260.877C393.138 249.456 395.094 243.008 395.906 201.438C396.718 159.868 396.387 83.1781 393.886 39.8558C391.385 -3.46654 386.715 -13.4198 372.832 -13.1971C358.949 -12.9744 335.855 -2.57514 322.008 6.12218C308.162 14.8195 303.564 21.8143 293.677 28.5259Z" fill="url(#paint0_linear_16_316)"/>
<path opacity="0.925" d="M306.812 -17.2103C296.602 -12.8324 281.327 -10.4146 269.236 5.03521C257.144 20.485 248.236 48.9651 250.874 66.3115C253.511 83.658 267.693 89.8701 280.319 89.636C292.944 89.4019 304.013 82.7221 311.667 87.7885C319.321 92.8549 323.561 109.666 323.552 128.233C323.543 146.799 319.287 167.121 315.715 191.727C312.143 216.333 309.256 245.22 315.811 266.39C322.366 287.559 338.362 301.01 350.191 299.598C362.02 298.186 369.683 281.912 374.787 270.498C379.89 259.085 382.435 252.532 387.486 206.619C392.537 160.705 400.094 75.4335 402.135 26.5435C404.176 -22.3466 400.701 -34.8532 387.311 -38.9243C373.92 -42.9955 350.616 -38.6301 336.391 -33.2782C322.166 -27.9262 317.021 -21.5883 306.812 -17.2103Z" fill="url(#paint1_linear_16_316)"/>
<path opacity="0.925" d="M56.3486 681.18C70.3605 677.054 79.918 649.958 82.6558 623.798C85.3936 597.638 81.3115 572.421 77.8783 546.342C74.4451 520.264 71.6626 493.337 66.1285 478.739C60.5945 464.141 52.3108 461.877 49.3146 449.402C46.3185 436.927 48.6122 414.248 44.9209 398.013C41.2296 381.777 31.5543 371.993 21.322 359.657C11.0897 347.321 0.305389 332.439 -38.936 324.313C-78.1773 316.188 -145.862 314.823 -188.811 329.859C-231.76 344.896 -249.969 376.333 -241.019 410.316C-232.069 444.299 -195.966 480.819 -156.131 517.854C-116.295 554.888 -72.7488 592.418 -48.2702 616.578C-23.7917 640.738 -18.3872 651.522 -12.6206 654.466C-6.85403 657.411 -0.72612 652.514 11.5721 659.489C23.8702 666.463 42.3367 685.306 56.3486 681.18Z" fill="url(#paint2_linear_16_316)"/>
<path opacity="0.925" d="M51.2606 654.112C65.2725 649.986 74.83 622.89 77.5678 596.73C80.3056 570.57 76.2234 545.353 72.7903 519.274C69.3571 493.196 66.5746 466.27 61.0405 451.671C55.5065 437.073 47.2228 434.809 44.2266 422.334C41.2304 409.859 43.5242 387.181 39.8329 370.945C36.1416 354.709 26.4662 344.925 16.234 332.589C6.00172 320.253 -4.78262 305.371 -44.024 297.246C-83.2653 289.12 -150.95 287.755 -193.899 302.791C-236.848 317.828 -255.057 349.265 -246.107 383.248C-237.157 417.232 -201.054 453.751 -161.219 490.786C-121.383 527.821 -77.8368 565.351 -53.3582 589.51C-28.8797 613.67 -23.4752 624.454 -17.7086 627.399C-11.942 630.343 -5.81413 625.447 6.48405 632.421C18.7822 639.395 37.2487 658.238 51.2606 654.112Z" fill="url(#paint3_linear_16_316)"/>
<path opacity="0.925" d="M424.096 574.694C414.076 576.083 394.036 578.86 378.272 589.819C362.509 600.778 351.027 619.916 338.717 638.701C326.407 657.486 313.276 675.91 308.381 691.033C303.485 706.156 306.828 717.972 301.687 728.685C296.546 739.398 282.925 749.001 276.12 762.678C269.315 776.355 269.329 794.101 268.262 813.967C267.194 833.832 265.045 855.809 282.296 910.35C299.547 964.892 336.193 1051.98 368.11 1098.45C400.027 1144.93 427.212 1150.79 440.78 1120.6C454.348 1090.41 454.299 1024.19 452.468 952.918C450.637 881.649 447.026 805.373 446.665 760.805C446.303 716.236 449.193 703.385 447.611 694.403C446.03 685.421 439.977 680.31 436.983 660.771C433.988 641.232 434.052 607.268 434.084 590.287C434.116 573.306 434.116 573.306 424.096 574.694Z" fill="url(#paint4_linear_16_316)"/>
<path opacity="0.925" d="M442.958 569.956C432.938 571.345 412.898 574.122 397.135 585.081C381.371 596.04 369.889 615.178 357.579 633.963C345.27 652.748 332.138 671.172 327.243 686.295C322.348 701.418 325.69 713.234 320.55 723.947C315.409 734.66 301.788 744.262 294.982 757.94C288.177 771.617 288.192 789.363 287.124 809.228C286.057 829.094 283.907 851.071 301.158 905.612C318.409 960.153 355.056 1047.24 386.972 1093.71C418.889 1140.19 446.074 1146.05 459.642 1115.86C473.211 1085.67 473.161 1019.45 471.33 948.18C469.5 876.911 465.888 800.635 465.527 756.066C465.166 711.498 468.055 698.647 466.474 689.665C464.892 680.683 458.839 675.572 455.845 656.033C452.851 636.494 452.914 602.53 452.946 585.549C452.978 568.568 452.978 568.568 442.958 569.956Z" fill="url(#paint5_linear_16_316)"/>
<defs>
<linearGradient id="paint0_linear_16_316" x1="243.705" y1="140.706" x2="396.301" y2="140.706" gradientUnits="userSpaceOnUse">
<stop stop-color="#BF3E36" stop-opacity="0.645477"/>
<stop offset="0.396092" stop-color="#A63E36"/>
<stop offset="0.751332" stop-color="#A63E36"/>
<stop offset="1" stop-color="#A63E36"/>
</linearGradient>
<linearGradient id="paint1_linear_16_316" x1="246.756" y1="98.2166" x2="396.54" y2="111.49" gradientUnits="userSpaceOnUse">
<stop offset="0.154529" stop-color="#82403F"/>
<stop offset="0.60746" stop-color="#732A29"/>
<stop offset="0.78508" stop-color="#6A1B1A"/>
<stop offset="0.896981" stop-color="#6A1B1A"/>
<stop offset="1" stop-color="#6A1B1A"/>
</linearGradient>
<linearGradient id="paint2_linear_16_316" x1="-331.382" y1="441.675" x2="-39.4383" y2="448.794" gradientUnits="userSpaceOnUse">
<stop stop-color="#A63936"/>
<stop offset="0.0776897" stop-color="#A63436"/>
<stop offset="0.21492" stop-color="#A63236" stop-opacity="0.867971"/>
<stop offset="0.313953" stop-color="#A63E36" stop-opacity="0.806846"/>
<stop offset="1" stop-color="#A63E36"/>
</linearGradient>
<linearGradient id="paint3_linear_16_316" x1="-336.47" y1="414.607" x2="-44.5263" y2="421.726" gradientUnits="userSpaceOnUse">
<stop stop-color="#6A1B1A"/>
<stop offset="0.146961" stop-color="#6A1B1A"/>
<stop offset="0.230906" stop-color="#6A1B1A"/>
<stop offset="0.322834" stop-color="#732A29"/>
<stop offset="1" stop-color="#6A1B1A"/>
</linearGradient>
<linearGradient id="paint4_linear_16_316" x1="507.781" y1="1218.53" x2="246.744" y2="939.014" gradientUnits="userSpaceOnUse">
<stop stop-color="#A63936"/>
<stop offset="0.0776897" stop-color="#A63436"/>
<stop offset="0.21492" stop-color="#A63236" stop-opacity="0.867971"/>
<stop offset="0.313953" stop-color="#A63E36" stop-opacity="0.806846"/>
<stop offset="1" stop-color="#A63E36"/>
</linearGradient>
<linearGradient id="paint5_linear_16_316" x1="526.643" y1="1213.8" x2="265.606" y2="934.276" gradientUnits="userSpaceOnUse">
<stop stop-color="#6A1B1A"/>
<stop offset="0.146961" stop-color="#6A1B1A"/>
<stop offset="0.230906" stop-color="#6A1B1A"/>
<stop offset="0.322834" stop-color="#732A29"/>
<stop offset="1" stop-color="#6A1B1A"/>
</linearGradient>
</defs>
</svg>
