<svg width="52" height="54" viewBox="0 0 52 54" fill="none" xmlns="http://www.w3.org/2000/svg">
<path d="M19.7188 53.3049V35.3499H14.3585V27.0991H19.7188V23.5441C19.7188 14.3529 23.7228 10.0936 32.4112 10.0936C33.28 10.0936 34.4803 10.1881 35.5918 10.3254C36.4244 10.4143 37.2503 10.5609 38.064 10.7641V18.2454C37.5935 18.1998 37.1216 18.1728 36.6492 18.1644C36.1199 18.1501 35.5905 18.1434 35.061 18.1441C33.5292 18.1441 32.3332 18.3601 31.4318 18.8394C30.8259 19.1551 30.3165 19.6396 29.9607 20.2389C29.4017 21.1839 29.1503 22.4776 29.1503 24.1809V27.0991H37.6415L36.8052 31.8309L36.1833 35.3499H29.1503V53.9011C42.0247 52.2856 52 40.9029 52 27.0991C52 12.1884 40.3585 0.0991211 26 0.0991211C11.6415 0.0991211 0 12.1884 0 27.0991C0 39.7621 8.39367 50.3866 19.7188 53.3049Z" fill="white"/>
</svg>
