<svg width="52" height="40" viewBox="0 0 52 40" fill="none" xmlns="http://www.w3.org/2000/svg">
<path d="M50.9123 6.91832C50.6186 5.76919 50.0392 4.72038 49.2323 3.87692C48.4254 3.03345 47.4193 2.42494 46.3147 2.11232C42.2608 0.976074 26 0.976074 26 0.976074C26 0.976074 9.73917 0.976074 5.68317 2.11232C4.57905 2.42549 3.57347 3.03422 2.767 3.87763C1.96053 4.72104 1.38145 5.76956 1.08767 6.91832C0 11.1573 0 19.9998 0 19.9998C0 19.9998 0 28.8423 1.08767 33.0813C1.38144 34.2304 1.96078 35.2793 2.76768 36.1227C3.57458 36.9662 4.58072 37.5747 5.68533 37.8873C9.73917 39.0236 26 39.0236 26 39.0236C26 39.0236 42.2608 39.0236 46.3168 37.8873C47.4216 37.5749 48.4278 36.9665 49.2347 36.123C50.0417 35.2795 50.6209 34.2306 50.9145 33.0813C52 28.8423 52 19.9998 52 19.9998C52 19.9998 52 11.1573 50.9123 6.91832ZM20.6808 28.0278V11.9718L34.2723 19.9998L20.6808 28.0278Z" fill="white"/>
</svg>
