<svg width="51" height="54" viewBox="0 0 51 54" fill="none" xmlns="http://www.w3.org/2000/svg">
<path d="M14.9389 0.189038C12.2257 0.324488 10.3729 0.783038 8.75305 1.45669C7.07685 2.14856 5.65586 3.07669 4.2421 4.57901C2.82855 6.08134 1.95772 7.58681 1.30917 9.36476C0.681448 11.0833 0.256023 13.0469 0.136173 15.9213C0.0163234 18.7956 -0.0102391 19.7197 0.00314838 27.052C0.0163234 34.3839 0.0469234 35.303 0.178461 38.1834C0.308086 41.0556 0.739461 43.0169 1.3759 44.7325C2.0304 46.5075 2.9059 48.0114 4.3254 49.5088C5.74469 51.0062 7.16546 51.926 8.84846 52.6138C10.4703 53.2776 12.3252 53.73 15.0394 53.8558C17.7537 53.9818 18.6273 54.0111 25.5501 53.9969C32.4729 53.9829 33.3446 53.9503 36.0642 53.8137C38.7842 53.6772 40.6266 53.217 42.2475 52.5463C43.9239 51.852 45.3453 50.9263 46.7585 49.4231C48.1716 47.9196 49.0418 46.413 49.6899 44.6342C50.3183 42.917 50.7452 40.9532 50.8629 38.0813C50.9819 35.1993 51.0099 34.2792 50.9968 26.9483C50.9834 19.6171 50.9521 18.698 50.8232 15.8187C50.6942 12.9393 50.2622 10.9841 49.6261 9.26734C48.9708 7.49231 48.0961 5.98954 46.6775 4.49104C45.2586 2.99254 43.8345 2.07184 42.1553 1.38716C40.5322 0.722288 38.6786 0.269363 35.9643 0.145163C33.25 0.0209628 32.3765 -0.0112122 25.4511 0.00318778C18.5257 0.0171378 17.6587 0.0486378 14.9389 0.189038ZM15.2368 48.9985C12.7506 48.884 11.4006 48.4466 10.5009 48.0805C9.30958 47.5945 8.46086 47.007 7.56432 46.0668C6.66757 45.1267 6.11699 44.2249 5.65182 42.9663C5.30247 42.0136 4.88172 40.5858 4.76549 37.9533C4.63905 35.1081 4.61249 34.2538 4.59761 27.0453C4.58274 19.8369 4.60887 18.9835 4.7266 16.1373C4.83285 13.507 5.2485 12.076 5.5936 11.1238C6.0526 9.86089 6.60552 8.96381 7.49547 8.01521C8.38542 7.06639 9.23457 6.48206 10.4244 5.98954C11.3232 5.61806 12.6715 5.17639 15.1567 5.05106C17.8459 4.91606 18.6517 4.88906 25.4587 4.87331C32.2657 4.85756 33.0737 4.88456 35.7639 5.01011C38.248 5.12441 39.6002 5.56024 40.4984 5.92811C41.6901 6.41411 42.5384 6.99776 43.4343 7.94186C44.3304 8.88551 44.8827 9.78146 45.3479 11.0439C45.6991 11.9928 46.1165 13.4199 46.2338 16.0531C46.3617 18.9005 46.3908 19.7544 46.4029 26.9611C46.4153 34.1679 46.3913 35.0238 46.2733 37.8691C46.1649 40.5016 45.7527 41.9315 45.4063 42.8853C44.9473 44.1462 44.3942 45.0453 43.5036 45.9934C42.6132 46.9418 41.7651 47.5259 40.5747 48.0184C39.6771 48.3894 38.3271 48.8322 35.844 48.9576C33.1546 49.0914 32.3488 49.1196 25.5393 49.1353C18.7297 49.1511 17.926 49.1218 15.2368 48.9985ZM36.0251 12.5694C36.0261 13.2103 36.2066 13.8365 36.5437 14.3687C36.8808 14.901 37.3595 15.3154 37.9191 15.5596C38.4787 15.8038 39.0941 15.8668 39.6875 15.7406C40.2809 15.6144 40.8257 15.3048 41.2529 14.8508C41.6801 14.3967 41.9705 13.8188 42.0874 13.19C42.2044 12.5612 42.1426 11.9098 41.9098 11.3182C41.6771 10.7266 41.2839 10.2214 40.7799 9.86642C40.276 9.51146 39.684 9.3227 39.0787 9.32404C38.2674 9.32583 37.4899 9.66871 36.9173 10.2773C36.3446 10.8859 36.0237 11.7104 36.0251 12.5694ZM12.4068 27.027C12.421 34.6842 18.2943 40.8774 25.5244 40.863C32.7549 40.8483 38.608 34.6302 38.5944 26.973C38.5806 19.3158 32.706 13.1209 25.4747 13.136C18.2433 13.1511 12.3932 19.3707 12.4068 27.027ZM17 27.0174C16.9966 25.2373 17.4919 23.4963 18.4231 22.0143C19.3544 20.5323 20.6797 19.376 22.2316 18.6915C23.7835 18.0071 25.4922 17.8253 27.1417 18.1691C28.7911 18.5129 30.3073 19.3668 31.4984 20.623C32.6895 21.8792 33.502 23.4811 33.8333 25.2262C34.1646 26.9713 33.9996 28.7813 33.3594 30.4272C32.7191 32.073 31.6323 33.4809 30.2364 34.4728C28.8405 35.4647 27.1981 35.996 25.517 35.9996C24.4007 36.0021 23.2949 35.7717 22.2627 35.3216C21.2305 34.8715 20.2921 34.2106 19.5012 33.3765C18.7103 32.5424 18.0824 31.5515 17.6532 30.4604C17.224 29.3692 17.002 28.1993 17 27.0174Z" fill="white"/>
</svg>
